<svg version="1.1"
      xmlns="http://www.w3.org/2000/svg"
      xmlns:xlink="http://www.w3.org/1999/xlink"  id="snapshot-67203" width="250" height="250" viewBox="0 0 250 250"><desc>This image was made on Patterninja.com</desc><defs>
<!-- image 69283 -->
<g id="transformed-69283" data-image="69283" transform="translate(-27.61966684720111, 82.38033315279893) rotate(34, 36.61966684720111, 36.619666847201074)"><g><svg version="1.1" width="73.23933369440222px" height="73.23933369440215px" viewBox="0 0 73.23933369440222 73.23933369440215"><g id="original-69283"><svg xmlns="http://www.w3.org/2000/svg" viewBox="0 0 512 512" xmlns:xlink="http://www.w3.org/1999/xlink" version="1.1" preserveAspectRatio="xMidYMid meet">
  <path d="M210 491.997c-5.52 0-10 4.49-10 10 0 5.52 4.48 10 10 10 5.51 0 10-4.48 10-10 0-5.509-4.49-10-10-10z" fill="rgba(0, 0, 0, 1)" stroke="none"/>
  <path d="M302 491.997c-5.52 0-10 4.49-10 10 0 5.52 4.48 10 10 10 5.51 0 10-4.48 10-10 0-5.509-4.49-10-10-10z" fill="rgba(0, 0, 0, 1)" stroke="none"/>
  <path d="M502 491.997h-30.45l-85.339-99.912a9.954 9.954 0 0 0 2.769-6.895v-40.707c0-5.523-4.477-10-10-10h-24.537c-8.326-19.817-30.386-74.516-31.066-76.2v-42.636c0-5.523-4.477-10-10-10h-13.971c-1.417-5.376-3.126-12.492-4.263-17.55-10.255-45.631-17.936-102.027-23.018-139.347-1.619-11.885-3.017-22.149-4.123-29.26-.613-3.942-1.103-6.717-1.542-8.734C264.908 3.619 261.276 0 255.668 0c-3.865 0-8.862 1.85-10.72 10.663-.403 1.913-.854 4.546-1.418 8.287-1.018 6.745-2.309 16.513-3.805 27.825-5.024 38-12.616 95.426-23.075 141.943-1.071 4.764-2.713 11.663-4.085 16.93h-13.949c-5.523 0-10 4.477-10 10v44.537c-.692 1.672-22.702 54.866-31.021 74.3h-24.582c-5.523 0-10 4.477-10 10v40.707c0 2.463.894 4.714 2.37 6.457l-85.714 100.35H10c-5.52 0-10 4.49-10 10 0 5.52 4.48 10 10 10h160c5.51 0 10-4.48 10-10 0-5.51-4.49-10-10-10h-19.326c12.001-20.26 42.25-56.689 104.937-57.681 36.067.571 65.723 12.569 88.14 35.66a117.452 117.452 0 0 1 16.796 22.021H342c-5.52 0-10 4.49-10 10 0 5.52 4.48 10 10 10h160c5.51 0 10-4.48 10-10 0-5.511-4.49-10.002-10-10.002zM332.773 334.484h-33.735l-28.845-68.129h34.875c.727 1.801 19.508 48.37 27.705 68.129zm-55.454 0h-42.773l20.89-51.684 21.883 51.684zm-41.155-141.379c8.321-37.006 14.816-80.455 19.678-115.982 4.929 35.16 11.513 78.538 19.789 115.36.025.112 1.456 6.465 3.126 13.165h-45.556c1.542-6.24 2.864-12.105 2.963-12.543zm-27.547 32.542h94.76v20.708h-94.76v-20.708zm-.909 40.707h32.803l-27.537 68.129h-33.643c8.181-19.32 27.465-65.927 28.377-68.129zm-64.694 88.13H368.98v20.707H143.014v-20.707zm-14.969 137.513H65.973l20.735-24.275h56.298c-7.487 9.692-12.262 18.529-14.961 24.275zm221.193-44.276c-19.207-16.451-49.304-32.745-93.478-33.405a14.801 14.801 0 0 0-.298 0c-44.175.66-74.272 16.954-93.479 33.405h-58.192l44.87-52.531h213.9l44.869 52.531h-58.192zm33.938 44.276c-2.698-5.747-7.474-14.585-14.961-24.275h56.298l20.735 24.275h-62.072z" fill="rgba(0, 0, 0, 1)" stroke="none"/>
</svg>
</g></svg></g></g>
<!-- /image 69283 -->

<!-- image 28661 -->
<g id="transformed-28661" data-image="28661" transform="translate(76.00000000000003, 90) rotate(337, 38.99999999999997, 39)"><g><svg version="1.1" width="77.99999999999994px" height="78px" viewBox="0 0 77.99999999999994 78"><g id="original-28661"><svg xmlns="http://www.w3.org/2000/svg" viewBox="0 0 496 496" xmlns:xlink="http://www.w3.org/1999/xlink" version="1.1" preserveAspectRatio="xMidYMid meet">
  <path d="M70.266 252.615l3.467 15.618-16.001 3.552-3.467-15.618z" fill="rgba(0, 0, 0, 1)" stroke="none"/>
  <path d="M448 233.232V192h-56v10.904l-88-47.664V92.752c0-3.672-.368-7.36-1.088-10.984l-8.8-43.96C289.736 15.896 270.344 0 248 0s-41.736 15.896-46.12 37.808l-8.8 43.968A56.916 56.916 0 0 0 192 92.752v62.488l-88 47.664V192H48v41.232l-48 26V304h16.688L192 273.512v63.336c0 19.536 2.992 38.824 8.6 57.488L120 451.88V496h16.984l89.768-22.448 7.48 22.448h27.528l7.48-22.448 88.816 22.208L376 496v-44.12l-80.6-57.552c5.608-18.664 8.6-37.944 8.6-57.488v-63.336l174.632 30.368L496 304v-44.768l-48-26zM64 208h24v3.568l-24 13V208zm128 17.576L86.264 249.072l3.472 15.624L192 241.976v15.296L16 287.88v-19.12l176-95.336v52.152zm-56 254.176V460.12l69.688-49.76 15.992 47.984L136 479.752zm114.232.248h-4.472l-28.32-84.976A183.66 183.66 0 0 1 208 336.84V92.752c0-2.624.256-5.264.776-7.84l8.8-43.96C220.464 26.496 233.256 16 248 16s27.536 10.496 30.432 24.944l8.8 43.952c.512 2.592.768 5.232.768 7.856v244.096c0 19.816-3.176 39.392-9.44 58.176L250.232 480zM360 460.12v19.632l-85.68-21.416 15.992-47.984L360 460.12zM408 208h24v16.568l-24-13V208zm72 79.88l-176-30.608v-15.296l102.264 22.728 3.472-15.624L304 225.584v-52.152l176 95.336v19.112z" fill="rgba(0, 0, 0, 1)" stroke="none"/>
  <path d="M425.761 252.618l16.002 3.555-3.47 15.62-16.002-3.556z" fill="rgba(0, 0, 0, 1)" stroke="none"/>
</svg>
</g></svg></g></g>
<!-- /image 28661 -->

<!-- image 53872 -->
<g id="transformed-53872" data-image="53872" transform="translate(90.09388773291236, 216.09388773291238) rotate(32, 31.906112267087632, 31.906112267087607)"><g><svg version="1.1" width="63.812224534175265px" height="63.812224534175215px" viewBox="0 0 63.812224534175265 63.812224534175215"><g id="original-53872"><svg xmlns="http://www.w3.org/2000/svg" viewBox="0 0 512 512" xmlns:xlink="http://www.w3.org/1999/xlink" version="1.1" preserveAspectRatio="xMidYMid meet">
  <path d="M446 297.579V227c0-.646-.067-1.275-.184-1.887C453.569 212.282 458 197.314 458 181.5V130c0-5.523-4.477-10-10-10h-11.077C449.916 107.284 458 89.572 458 70c0-38.598-31.402-70-70-70H124C85.402 0 54 31.402 54 70c0 19.572 8.084 37.284 21.088 50H64c-5.523 0-10 4.477-10 10v51.5c0 15.814 4.431 30.782 12.184 43.613A10.028 10.028 0 0 0 66 227v70.579c-37.136 4.539-66 36.246-66 74.589v64.664C0 478.28 33.72 512 75.168 512h361.664C478.28 512 512 478.28 512 436.832v-64.664c0-38.342-28.864-70.05-66-74.589zM397.913 20.991C420.751 25.603 438 45.823 438 70s-17.249 44.397-40.087 49.009V20.991zm0 119.009H438v41.5c0 26.527-16.278 49.958-40.087 59.697V140zm-48-120h28v258.987c0 7.72-6.28 14-14 14s-14-6.28-14-14V20zM182.087 140h22.247c5.523 0 10-4.477 10-10s-4.477-10-10-10h-22.247V20h147.826v100h-34.247c-5.523 0-10 4.477-10 10s4.477 10 10 10h34.247v106H182.087V140zm-48 114.537V20h28v258.987c0 7.72-6.28 14-14 14s-14-6.28-14-14v-24.45zM74 70c0-24.177 17.249-44.397 40.087-49.009v98.019C91.249 114.397 74 94.177 74 70zm0 70h40.087v101.197C90.278 231.458 74 208.027 74 181.5V140zm1.168 352C44.748 492 20 467.252 20 436.832v-64.664c0-27.296 19.93-50.011 46-54.392V446c0 17.875 7.154 34.103 18.736 46h-9.568zM426 446c0 25.364-20.636 46-46 46H132c-25.364 0-46-20.636-46-46V247.69a83.957 83.957 0 0 0 28.087 14.7v16.597c0 18.748 15.252 34 34 34 18.748 0 34-15.252 34-34V266h147.826v12.987c0 18.748 15.252 34 34 34s34-15.252 34-34V262.39A83.966 83.966 0 0 0 426 247.69V446zm66-9.168c0 30.42-24.748 55.168-55.168 55.168h-9.568C438.846 480.103 446 463.875 446 446V317.764c26.071 4.379 46 27.107 46 54.404v64.664z" fill="rgba(0, 0, 0, 1)" stroke="none"/>
  <path d="M319.957 323H192.043c-23.135 0-41.957 18.822-41.957 41.957V428c0 22.056 17.944 40 40 40h131.826c22.056 0 40-17.944 40-40v-63.043c.001-23.135-18.821-41.957-41.955-41.957zm21.957 105c-.001 11.028-8.973 20-20.001 20H190.087c-11.028 0-20-8.972-20-20v-34.833h99.58c5.523 0 10-4.477 10-10s-4.477-10-10-10h-99.58v-8.21c0-12.107 9.85-21.957 21.957-21.957h127.913c12.107 0 21.957 9.85 21.957 21.957V428z" fill="rgba(0, 0, 0, 1)" stroke="none"/>
  <path d="M260.74 122.93a10.076 10.076 0 0 0-7.07-2.93c-2.64 0-5.21 1.07-7.07 2.93-1.87 1.86-2.93 4.44-2.93 7.07s1.06 5.21 2.93 7.07c1.86 1.86 4.44 2.93 7.07 2.93s5.21-1.07 7.07-2.93 2.93-4.44 2.93-7.07-1.07-5.21-2.93-7.07z" fill="rgba(0, 0, 0, 1)" stroke="none"/>
  <path d="M370.98 207.26c-1.86-1.86-4.44-2.93-7.07-2.93s-5.21 1.07-7.07 2.93a10.076 10.076 0 0 0-2.93 7.07c0 2.64 1.07 5.21 2.93 7.07 1.86 1.87 4.44 2.93 7.07 2.93s5.21-1.06 7.07-2.93c1.87-1.86 2.93-4.43 2.93-7.07 0-2.63-1.06-5.21-2.93-7.07z" fill="rgba(0, 0, 0, 1)" stroke="none"/>
  <path d="M370.98 157.26c-1.86-1.86-4.44-2.93-7.07-2.93s-5.21 1.07-7.07 2.93a10.076 10.076 0 0 0-2.93 7.07c0 2.64 1.07 5.21 2.93 7.07 1.86 1.87 4.44 2.93 7.07 2.93s5.21-1.06 7.07-2.93c1.87-1.86 2.93-4.44 2.93-7.07s-1.06-5.2-2.93-7.07z" fill="rgba(0, 0, 0, 1)" stroke="none"/>
  <path d="M155.16 207.26c-1.86-1.86-4.44-2.93-7.07-2.93s-5.21 1.07-7.07 2.93a10.033 10.033 0 0 0-2.93 7.07c0 2.64 1.06 5.21 2.93 7.07 1.86 1.87 4.44 2.93 7.07 2.93s5.21-1.06 7.07-2.93c1.86-1.86 2.93-4.43 2.93-7.07 0-2.63-1.07-5.21-2.93-7.07z" fill="rgba(0, 0, 0, 1)" stroke="none"/>
  <path d="M155.16 157.26a10.076 10.076 0 0 0-7.07-2.93c-2.64 0-5.21 1.07-7.07 2.93-1.87 1.87-2.93 4.44-2.93 7.07s1.06 5.21 2.93 7.08c1.86 1.86 4.44 2.92 7.07 2.92s5.2-1.06 7.07-2.92a10.1 10.1 0 0 0 2.93-7.08c0-2.63-1.07-5.21-2.93-7.07z" fill="rgba(0, 0, 0, 1)" stroke="none"/>
  <path d="M319.57 376.1c-1.86-1.87-4.44-2.93-7.07-2.93s-5.21 1.06-7.07 2.93c-1.86 1.86-2.93 4.44-2.93 7.07s1.07 5.21 2.93 7.07 4.44 2.93 7.07 2.93 5.21-1.07 7.07-2.93c1.86-1.86 2.93-4.44 2.93-7.07s-1.07-5.21-2.93-7.07z" fill="rgba(0, 0, 0, 1)" stroke="none"/>
  <path d="M263.07 412.58c-1.86-1.86-4.44-2.93-7.07-2.93s-5.21 1.07-7.07 2.93-2.93 4.44-2.93 7.07 1.07 5.21 2.93 7.07c1.86 1.87 4.44 2.93 7.07 2.93s5.21-1.06 7.07-2.93c1.86-1.86 2.93-4.44 2.93-7.07s-1.07-5.21-2.93-7.07z" fill="rgba(0, 0, 0, 1)" stroke="none"/>
</svg>
</g></svg></g></g>
<!-- /image 53872 -->

<!-- image 70256 -->
<g id="transformed-70256" data-image="70256" transform="translate(204.68871125850725, 208.68871125850725) rotate(29, 40.311288741492746, 40.311288741492746)"><g><svg version="1.1" width="80.62257748298549px" height="80.62257748298549px" viewBox="0 0 80.62257748298549 80.62257748298549"><g id="original-70256"><svg xmlns="http://www.w3.org/2000/svg" viewBox="0 0 512 512" xmlns:xlink="http://www.w3.org/1999/xlink" version="1.1" preserveAspectRatio="xMidYMid meet">
  <path d="M467.178 235.384c-5.31-5.223-12.343-8.106-19.721-8.007h-33.434l-35.082-90.66h-34.05l10.789 90.66h-37.57l-18.378-14.114h-35.373l13.885 42.471-14.355 44.378 35.78-.286 18.093-16.687h38.528l-9.484 92.059 34.028-.273 33.838-91.786h33.173c15.373-.124 27.78-12.732 27.657-28.104-.06-7.449-3.016-14.428-8.324-19.651zm-98.658-83.46l29.196 75.453h-26.72l-8.98-75.453h6.504zm1.68 207.877l-6.525.053 7.902-76.716h26.885L370.2 359.801zm77.582-91.871H311.819l-18.144 16.735-8.829.07 9.39-29.028-8.905-27.236h9.235l18.378 14.114h134.573l.104-.001c3.346 0 6.498 1.291 8.886 3.641a12.594 12.594 0 0 1 3.784 8.931c.058 6.987-5.582 12.717-12.509 12.774z" fill="rgba(0, 0, 0, 1)" stroke="none"/>
  <path d="M180.082 248.396h15.208v15.208h-15.208z" fill="rgba(0, 0, 0, 1)" stroke="none"/>
  <path d="M210.498 248.396h15.208v15.208h-15.208z" fill="rgba(0, 0, 0, 1)" stroke="none"/>
  <path d="M240.914 248.396h15.208v15.208h-15.208z" fill="rgba(0, 0, 0, 1)" stroke="none"/>
  <path d="M473.98 100.372H38.02c-20.965 0-38.02 17.055-38.02 38.02v52.522l4.662 1.957c25.5 10.701 41.976 35.481 41.976 63.129s-16.476 52.428-41.976 63.13L0 321.086v52.522c0 20.965 17.055 38.02 38.02 38.02h435.96c20.965 0 38.02-17.055 38.02-38.02V138.392c0-20.965-17.055-38.02-38.02-38.02zm22.812 273.236c0 12.578-10.233 22.812-22.812 22.812H38.02c-12.579 0-22.812-10.234-22.812-22.812v-42.579c28.495-14.04 46.638-42.955 46.638-75.029s-18.143-60.989-46.638-75.029v-42.579c0-12.578 10.233-22.812 22.812-22.812h435.96c12.579 0 22.812 10.234 22.812 22.812v235.216z" fill="rgba(0, 0, 0, 1)" stroke="none"/>
  <path d="M82.63 136.871h62.859v15.208H82.63z" fill="rgba(0, 0, 0, 1)" stroke="none"/>
  <path d="M82.63 169.021h62.859v15.208H82.63z" fill="rgba(0, 0, 0, 1)" stroke="none"/>
  <path d="M82.63 201.181h62.859v15.208H82.63z" fill="rgba(0, 0, 0, 1)" stroke="none"/>
  <path d="M82.63 233.33h62.859v15.208H82.63z" fill="rgba(0, 0, 0, 1)" stroke="none"/>
  <path d="M82.63 265.49h62.859v15.208H82.63z" fill="rgba(0, 0, 0, 1)" stroke="none"/>
  <path d="M82.63 297.639h62.859v15.208H82.63z" fill="rgba(0, 0, 0, 1)" stroke="none"/>
  <path d="M82.63 329.799h62.859v15.208H82.63z" fill="rgba(0, 0, 0, 1)" stroke="none"/>
  <path d="M82.63 361.949h62.859v15.208H82.63z" fill="rgba(0, 0, 0, 1)" stroke="none"/>
</svg>
</g></svg></g></g>
<!-- /image 70256 -->
</defs><rect x="0" y="0" width="250" height="250" fill="rgba(225, 247, 231, 1)"></rect><use xlink:href="#transformed-69283" transform="translate(-250, -250)"></use><use xlink:href="#transformed-69283" transform="translate(0, -250)"></use><use xlink:href="#transformed-69283" transform="translate(250, -250)"></use><use xlink:href="#transformed-69283" transform="translate(-250, 0)"></use><use xlink:href="#transformed-69283" transform="translate(0, 0)"></use><use xlink:href="#transformed-69283" transform="translate(250, 0)"></use><use xlink:href="#transformed-69283" transform="translate(-250, 250)"></use><use xlink:href="#transformed-69283" transform="translate(0, 250)"></use><use xlink:href="#transformed-69283" transform="translate(250, 250)"></use><use xlink:href="#transformed-28661" transform="translate(-250, -250)"></use><use xlink:href="#transformed-28661" transform="translate(0, -250)"></use><use xlink:href="#transformed-28661" transform="translate(250, -250)"></use><use xlink:href="#transformed-28661" transform="translate(-250, 0)"></use><use xlink:href="#transformed-28661" transform="translate(0, 0)"></use><use xlink:href="#transformed-28661" transform="translate(250, 0)"></use><use xlink:href="#transformed-28661" transform="translate(-250, 250)"></use><use xlink:href="#transformed-28661" transform="translate(0, 250)"></use><use xlink:href="#transformed-28661" transform="translate(250, 250)"></use><use xlink:href="#transformed-53872" transform="translate(-250, -250)"></use><use xlink:href="#transformed-53872" transform="translate(0, -250)"></use><use xlink:href="#transformed-53872" transform="translate(250, -250)"></use><use xlink:href="#transformed-53872" transform="translate(-250, 0)"></use><use xlink:href="#transformed-53872" transform="translate(0, 0)"></use><use xlink:href="#transformed-53872" transform="translate(250, 0)"></use><use xlink:href="#transformed-53872" transform="translate(-250, 250)"></use><use xlink:href="#transformed-53872" transform="translate(0, 250)"></use><use xlink:href="#transformed-53872" transform="translate(250, 250)"></use><use xlink:href="#transformed-70256" transform="translate(-250, -250)"></use><use xlink:href="#transformed-70256" transform="translate(0, -250)"></use><use xlink:href="#transformed-70256" transform="translate(250, -250)"></use><use xlink:href="#transformed-70256" transform="translate(-250, 0)"></use><use xlink:href="#transformed-70256" transform="translate(0, 0)"></use><use xlink:href="#transformed-70256" transform="translate(250, 0)"></use><use xlink:href="#transformed-70256" transform="translate(-250, 250)"></use><use xlink:href="#transformed-70256" transform="translate(0, 250)"></use><use xlink:href="#transformed-70256" transform="translate(250, 250)"></use></svg>